<?xml version="1.0" encoding="UTF-8"?>
<svg id="Layer_1" data-name="Layer 1" xmlns="http://www.w3.org/2000/svg" xmlns:xlink="http://www.w3.org/1999/xlink" viewBox="0 0 537.96 105.05">
  <defs>
    <style>
      .cls-1 {
        fill: #fff;
      }

      .cls-2 {
        clip-path: url(#clippath);
      }
    </style>
    <clipPath id="clippath">
      <path class="cls-1" d="M61.64,40.91c-.99,14.92-11.32,27.66-26.5,31.93-14.64-4.01-25.6-16.49-26.59-31.93l-1.98-30.97C15.83,5.57,24.54,3.21,35.14,3.21c9.61,0,19.04,2.09,28.47,6.72l-1.98,30.97h0ZM59.57,10.37l-1.98,30.28c-.81,12.65-9.25,23.82-22.45,28.09-12.49-3.93-21.65-14.74-22.54-28.09l-1.98-30.28c-.54.26-1.35.52-1.8.79l1.89,29.58c.9,13.96,10.69,26,24.43,29.93,13.38-3.93,23.44-15.7,24.34-29.93l1.89-29.58c-.54-.26-1.08-.52-1.8-.79h0ZM29.31,38.73l-4.04-5.24-9.7,12.56c.72,3.22,2.34,4.71,6.38,4.71,2.78,0,3.32-1.66,6.56-1.66,3.41,0,3.59,1.66,6.65,1.66,2.78,0,3.14-1.66,6.47-1.66s3.78,1.66,6.65,1.66c3.95,0,5.93-1.83,6.37-4.79l-9.7-12.48-4.04,5.24-5.75-11.26-5.84,11.26h0ZM48.26,55.21c.89,0,1.7-.26,2.42-.52.53-.87.89-1.48,1.44-2.35-1.17.52-2.42.96-3.86.96-3.24,0-3.42-1.65-6.65-1.65-3.05,0-3.32,1.65-6.55,1.65s-3.32-1.65-6.56-1.65-3.5,1.65-6.56,1.65c-1.71,0-2.78-.61-3.86-1.05.45.79.9,1.66,1.44,2.44.81.26,1.62.43,2.42.43,3.41,0,3.32-1.66,6.56-1.66,3.05,0,3.5,1.75,6.56,1.75,3.23,0,3.5-1.75,6.55-1.75s3.41,1.75,6.65,1.75h0ZM41.61,56c-2.96,0-3.05,1.65-6.47,1.65s-3.86-1.65-6.65-1.65-2.97,1.65-6.74,1.65c3.5,3.93,7.99,7.07,13.38,8.9,5.12-1.75,9.61-4.71,13.29-8.9-3.68,0-3.78-1.65-6.83-1.65ZM27.15,9.67l-2.51-.26,1.53,1.92-1.62,1.92,2.61-.26.99,2.27.99-2.27,2.42.26-1.44-1.92,1.44-1.92-2.42.26-.99-2.18-.99,2.18ZM34.15,18.66l-2.51-.26,1.52,1.92-1.62,1.92,2.61-.26.99,2.27.99-2.27,2.42.26-1.44-1.92,1.44-1.92-2.42.26-.99-2.18s-.99,2.18-.99,2.18ZM40.98,9.67l-2.51-.26,1.53,1.92-1.62,1.92,2.6-.26.99,2.27.99-2.27,2.42.26-1.44-1.92,1.44-1.92-2.42.26-.99-2.18-.99,2.18Z"/>
    </clipPath>
  </defs>
  <path class="cls-1" d="M313.18,23.47c-.19-.62-.51-1.16-.98-1.62-.46-.47-1.09-.88-1.9-1.24-.81-.37-1.84-.75-3.08-1.14-.69-.2-1.29-.41-1.8-.62-.52-.22-.94-.48-1.28-.77-.33-.3-.58-.66-.75-1.09-.17-.43-.25-.98-.25-1.63,0-1.28.33-2.19.99-2.74.66-.56,1.78-.84,3.36-.84.9,0,1.74.09,2.51.24.77.16,1.56.38,2.37.66l.38-1.9c-.81-.31-1.67-.55-2.59-.72-.91-.17-1.84-.25-2.76-.25-2.25,0-3.91.47-4.97,1.43-1.06.95-1.6,2.38-1.6,4.27,0,.89.12,1.65.36,2.29.23.64.6,1.2,1.08,1.67.48.47,1.09.87,1.83,1.19.74.33,1.6.63,2.59.91.88.25,1.62.5,2.2.76.58.26,1.05.55,1.39.88.35.32.58.7.71,1.14.13.45.19.97.19,1.58,0,.75-.09,1.37-.26,1.87-.18.49-.45.88-.82,1.16-.36.29-.82.49-1.37.59-.56.11-1.21.17-1.98.17-.99,0-1.96-.09-2.92-.25-.95-.17-1.84-.4-2.67-.7l-.47,1.92c.88.33,1.79.58,2.72.74.92.16,1.95.23,3.07.23,1.26,0,2.34-.1,3.23-.32.88-.22,1.61-.56,2.17-1.03.56-.48.96-1.09,1.21-1.85.24-.76.37-1.67.37-2.73,0-.89-.09-1.64-.28-2.26ZM185.11,10.16v13.88c0,2.01-.43,3.46-1.28,4.35-.86.88-2.14,1.32-3.83,1.32s-3-.43-3.83-1.31c-.84-.87-1.26-2.33-1.26-4.36v-13.88h-2.25v14.12c0,2.58.63,4.46,1.88,5.63s3.03,1.75,5.31,1.75c1.18,0,2.23-.14,3.16-.44.93-.29,1.72-.75,2.37-1.37.65-.62,1.14-1.42,1.48-2.39.33-.98.5-2.14.5-3.5v-13.8h-2.25ZM347.03,15.57c-.34-1.4-.84-2.53-1.51-3.37-.67-.85-1.52-1.45-2.53-1.83-1.01-.37-2.2-.56-3.56-.56s-2.59.19-3.61.56c-1.03.38-1.88.99-2.54,1.85-.68.85-1.18,1.98-1.51,3.39-.34,1.41-.51,3.14-.51,5.19s.17,3.76.51,5.15c.33,1.39.83,2.5,1.51,3.35.66.85,1.51,1.45,2.54,1.82,1.02.36,2.22.54,3.61.54s2.58-.18,3.6-.54c1.03-.37,1.87-.97,2.53-1.83.66-.86,1.16-1.99,1.48-3.38.32-1.4.49-3.14.49-5.2s-.17-3.74-.5-5.14ZM344.88,24.84c-.18,1.14-.5,2.08-.95,2.8-.44.71-1.03,1.23-1.77,1.56-.74.32-1.66.49-2.76.49s-2.03-.17-2.77-.49c-.74-.33-1.33-.85-1.77-1.56-.45-.72-.76-1.66-.95-2.8-.19-1.14-.28-2.53-.28-4.16s.09-3.05.28-4.18c.19-1.14.5-2.05.95-2.75.44-.7,1.03-1.2,1.77-1.5.74-.31,1.66-.47,2.77-.47s2.02.16,2.76.47c.74.3,1.33.8,1.77,1.5.45.7.77,1.61.95,2.75.19,1.13.28,2.52.28,4.18s-.09,3.02-.28,4.16ZM247.07,28.89c-.63.28-1.3.47-2.01.59-.71.12-1.44.18-2.19.18-1.16,0-2.16-.15-3-.43-.84-.29-1.53-.77-2.07-1.45-.55-.68-.95-1.59-1.22-2.73-.26-1.15-.4-2.58-.4-4.31s.13-3.17.39-4.32c.26-1.14.64-2.05,1.15-2.74.52-.69,1.16-1.18,1.96-1.46.78-.29,1.7-.43,2.74-.43.89,0,1.7.07,2.43.22.73.15,1.41.35,2.04.6l.39-1.88c-.62-.3-1.37-.53-2.27-.69-.9-.15-1.85-.23-2.85-.23-1.44,0-2.68.2-3.73.62-1.04.41-1.91,1.06-2.59,1.95-.69.88-1.2,2.02-1.53,3.41-.33,1.39-.49,3.06-.49,5.01s.17,3.6.51,4.97.85,2.5,1.53,3.37c.69.88,1.56,1.51,2.62,1.92,1.05.4,2.3.6,3.74.6,1.06,0,2.04-.08,2.93-.26.88-.18,1.67-.41,2.36-.71l-.44-1.8ZM273.62,15.57c-.33-1.4-.84-2.53-1.51-3.37-.67-.85-1.51-1.45-2.52-1.83-1.02-.37-2.21-.56-3.57-.56s-2.58.19-3.6.56c-1.03.38-1.88.99-2.55,1.85-.67.85-1.17,1.98-1.51,3.39-.33,1.41-.5,3.14-.5,5.19s.17,3.76.5,5.15c.34,1.39.84,2.5,1.51,3.35.67.85,1.52,1.45,2.55,1.82,1.02.36,2.22.54,3.6.54s2.59-.18,3.61-.54c1.03-.37,1.87-.97,2.53-1.83.66-.86,1.15-1.99,1.48-3.38.32-1.4.49-3.14.49-5.2s-.17-3.74-.51-5.14ZM271.48,24.84c-.19,1.14-.5,2.08-.95,2.8-.44.71-1.03,1.23-1.77,1.56-.74.32-1.66.49-2.77.49s-2.02-.17-2.76-.49c-.74-.33-1.33-.85-1.77-1.56-.45-.72-.77-1.66-.95-2.8-.19-1.14-.28-2.53-.28-4.16s.09-3.05.28-4.18c.18-1.14.5-2.05.95-2.75.44-.7,1.03-1.2,1.77-1.5.74-.31,1.66-.47,2.76-.47s2.03.16,2.77.47c.74.3,1.33.8,1.77,1.5.45.7.76,1.61.95,2.75.19,1.13.28,2.52.28,4.18s-.09,3.02-.28,4.16ZM291.25,12.06v-1.9h-12.42v21.15h2.25v-9.45h8.78v-1.89h-8.78v-7.91h10.17ZM398.66,10.16v18.73h-.11l-9.5-18.73h-3.31v21.15h2.07V12.56h.12l9.52,18.75h3.28V10.16h-2.07ZM422.08,10.16h-3.01l-6.95,21.15h2.3l1.63-5.17h8.99l1.66,5.17h2.36l-6.98-21.15ZM416.64,24.25l3.85-12.08h.11l3.85,12.08h-7.81ZM129.66,21.89c1.54-.27,2.67-.88,3.4-1.82.73-.93,1.1-2.3,1.1-4.09,0-1.08-.14-2-.41-2.74-.28-.75-.71-1.35-1.29-1.81-.58-.45-1.32-.77-2.21-.97-.88-.2-1.93-.3-3.13-.3h-6.77v21.15h2.25v-9.19h4.7l4.73,9.19h2.57l-4.94-9.42ZM126.94,20.24h-4.34v-8.19h4.34c.83,0,1.56.06,2.18.17.62.1,1.13.31,1.54.6.4.3.7.71.91,1.23.21.53.31,1.21.31,2.06s-.1,1.58-.32,2.12c-.22.55-.54.96-.95,1.26-.41.3-.93.5-1.54.6-.61.09-1.32.15-2.13.15ZM169.23,13.35c-.28-.76-.7-1.38-1.28-1.86-.59-.47-1.32-.81-2.21-1.02-.88-.2-1.93-.31-3.13-.31h-6.63v21.15h2.25v-8.71h4.38c2.42,0,4.2-.49,5.34-1.47,1.13-.97,1.7-2.61,1.7-4.91,0-1.14-.14-2.1-.42-2.87ZM167.04,18.62c-.21.56-.53,1-.94,1.3-.42.31-.93.52-1.54.62-.61.11-1.32.17-2.13.17h-4.2v-8.6h4.2c.83,0,1.55.06,2.17.16.63.12,1.14.33,1.54.64.41.32.71.75.92,1.31.21.55.31,1.27.31,2.16s-.11,1.67-.33,2.24ZM205.83,22.25c-.48-.79-1.24-1.37-2.26-1.77v-.11c1.73-.73,2.6-2.3,2.6-4.72,0-1.83-.52-3.2-1.57-4.11-1.04-.92-2.76-1.38-5.14-1.38h-6.75v21.15h6.75c2.5,0,4.31-.46,5.42-1.39,1.12-.93,1.67-2.38,1.67-4.38,0-1.42-.24-2.52-.72-3.29ZM194.96,12.06h4.73c1.32,0,2.35.26,3.09.79.74.53,1.11,1.53,1.11,2.98s-.37,2.4-1.12,2.94c-.75.55-1.78.82-3.08.82h-4.73v-7.53ZM203.21,28.46c-.71.64-1.79.96-3.25.96h-5v-7.95h5c1.46,0,2.54.32,3.25.95s1.07,1.63,1.07,3-.36,2.4-1.07,3.04ZM151.49,12.05v-1.89h-12.69v21.15h12.69v-1.89h-10.44v-7.83h9.05v-1.89h-9.05v-7.65h10.44ZM213.36,29.42V10.16h-2.25v21.15h12.12v-1.89h-9.87ZM363.15,10.16l-5.63,18.97h-.11l-5.68-18.97h-2.31l6.39,21.15h3.16l6.36-21.15h-2.18ZM319.88,29.42V10.16h-2.25v21.15h12.12v-1.89h-9.87ZM381.24,12.05v-1.89h-12.68v21.15h12.68v-1.89h-10.43v-7.83h9.04v-1.89h-9.04v-7.65h10.43ZM226.9,10.16v21.15h2.25V10.16h-2.25ZM406.58,10.16v21.15h2.25V10.16h-2.25Z"/>
  <g>
    <path class="cls-1" d="M125.17,45.66l4.21,9.45h.14l4.18-9.45h4.68v20.81h-3.66v-15.4h-.14l-3.54,8.11h-3.43l-3.58-8.08h-.14v15.37h-3.54v-20.81h4.82Z"/>
    <path class="cls-1" d="M142.75,66.47v-20.81h4.04v20.81h-4.04Z"/>
    <path class="cls-1" d="M154.95,50.86h-.14v15.6h-3.6v-20.81h5.34l7.03,16.07h.15v-16.07h3.6v20.81h-5.38l-7-15.6Z"/>
    <path class="cls-1" d="M171.75,66.47v-20.81h4.04v20.81h-4.04Z"/>
    <path class="cls-1" d="M193.05,60.43c0,1.16-.14,2.14-.42,2.94-.28.8-.74,1.46-1.37,1.97-.63.51-1.43.88-2.41,1.12-.98.23-2.17.35-3.56.35-1.2,0-2.29-.08-3.27-.23-.98-.15-1.89-.37-2.75-.64l.73-3.49c.79.27,1.69.49,2.67.67.99.17,1.94.26,2.85.26.48,0,.93-.04,1.34-.12.41-.08.76-.21,1.05-.41.29-.19.52-.47.69-.82.16-.35.25-.78.25-1.31,0-.41-.06-.76-.17-1.05-.12-.29-.31-.55-.58-.77-.27-.22-.63-.43-1.07-.61-.45-.18-1.01-.37-1.69-.57-.95-.27-1.79-.57-2.53-.89s-1.35-.72-1.84-1.21c-.49-.48-.87-1.07-1.14-1.76-.26-.69-.39-1.53-.39-2.54,0-2.21.6-3.77,1.8-4.68s2.98-1.36,5.35-1.36c1.01,0,1.95.09,2.82.26.87.18,1.77.45,2.7.82l-.49,3.36c-.72-.29-1.5-.52-2.36-.68s-1.71-.25-2.59-.25c-.44,0-.85.03-1.22.07-.37.05-.69.16-.96.32-.27.17-.48.39-.64.68-.16.29-.23.68-.23,1.16s.08.89.23,1.22.39.61.7.84c.31.23.69.44,1.14.61.46.17.99.35,1.61.52,1.07.31,1.97.63,2.71.96.73.33,1.32.72,1.77,1.19.45.46.77,1.01.97,1.65s.31,1.43.31,2.38Z"/>
    <path class="cls-1" d="M203.63,49.18v17.29h-4.04v-17.29h-5.43v-3.52h14.91v3.52h-5.43Z"/>
    <path class="cls-1" d="M226.41,51.85c0,1.45-.26,2.67-.79,3.66-.52.99-1.38,1.71-2.56,2.18l4.59,8.78h-4.65l-4.04-8.17h-3.08v8.17h-4.04v-20.81h7.17c1.41,0,2.6.13,3.55.39.95.26,1.7.65,2.27,1.18.56.52.96,1.17,1.21,1.95s.36,1.67.36,2.67ZM222.28,51.97c0-1.12-.26-1.88-.79-2.27s-1.44-.58-2.73-.58h-2.88v5.87h2.88c.7,0,1.27-.05,1.73-.16s.81-.28,1.08-.51c.26-.23.44-.54.55-.93s.16-.86.16-1.42Z"/>
    <path class="cls-1" d="M238.35,59.67v6.8h-4.04v-6.74l-6.28-14.06h4.3l4.02,9.94h.14l4.02-9.94h4.1l-6.28,14.01Z"/>
    <path class="cls-1" d="M260.96,66.82c-1.43,0-2.68-.17-3.75-.49s-1.95-.9-2.66-1.71c-.7-.81-1.23-1.91-1.58-3.28-.35-1.37-.52-3.11-.52-5.2s.17-3.83.52-5.22.88-2.49,1.58-3.33c.71-.83,1.59-1.42,2.66-1.76,1.07-.34,2.32-.51,3.75-.51s2.65.17,3.71.51c1.06.34,1.94.92,2.64,1.74s1.24,1.92,1.58,3.3c.35,1.37.52,3.1.52,5.17s-.17,3.86-.51,5.25-.86,2.49-1.55,3.31c-.7.82-1.58,1.4-2.64,1.73-1.07.33-2.32.49-3.75.49ZM260.93,63.3c.85,0,1.56-.12,2.11-.36.55-.24.99-.64,1.31-1.21.32-.56.54-1.31.67-2.25.13-.94.19-2.1.19-3.47s-.06-2.55-.19-3.47c-.13-.92-.35-1.66-.67-2.21-.32-.55-.76-.94-1.31-1.16s-1.26-.34-2.11-.34-1.56.11-2.11.34-.99.61-1.31,1.16c-.32.55-.54,1.29-.67,2.21-.13.92-.19,2.08-.19,3.47s.06,2.53.19,3.47c.12.94.35,1.69.67,2.25.32.56.76.96,1.31,1.21.55.24,1.26.36,2.11.36Z"/>
    <path class="cls-1" d="M277.06,49.18v5.29h7.7v3.46h-7.7v8.54h-4.04v-20.81h13.05v3.52h-9.01Z"/>
    <path class="cls-1" d="M294.96,66.47v-20.81h4.04v20.81h-4.04Z"/>
    <path class="cls-1" d="M307.16,50.86h-.15v15.6h-3.6v-20.81h5.35l7.03,16.07h.14v-16.07h3.6v20.81h-5.38l-7-15.6Z"/>
    <path class="cls-1" d="M328,49.18v5.29h7.7v3.46h-7.7v8.54h-4.04v-20.81h13.05v3.52h-9.01Z"/>
    <path class="cls-1" d="M354.12,51.85c0,1.45-.26,2.67-.78,3.66-.52.99-1.38,1.71-2.56,2.18l4.59,8.78h-4.65l-4.04-8.17h-3.08v8.17h-4.04v-20.81h7.18c1.41,0,2.59.13,3.54.39.95.26,1.71.65,2.27,1.18.56.52.96,1.17,1.21,1.95s.36,1.67.36,2.67ZM350,51.97c0-1.12-.26-1.88-.79-2.27s-1.43-.58-2.73-.58h-2.88v5.87h2.88c.7,0,1.27-.05,1.73-.16s.81-.28,1.07-.51c.26-.23.45-.54.55-.93s.16-.86.16-1.42Z"/>
    <path class="cls-1" d="M368.65,62.08h-7.09l-1.16,4.39h-4.24l6.31-20.81h5.43l6.34,20.81h-4.36l-1.22-4.39ZM362.49,58.68h5.23l-2.56-9.36h-.15l-2.53,9.36Z"/>
    <path class="cls-1" d="M389.45,60.43c0,1.16-.14,2.14-.42,2.94-.28.8-.74,1.46-1.37,1.97-.63.51-1.43.88-2.41,1.12-.98.23-2.16.35-3.56.35-1.2,0-2.29-.08-3.27-.23-.98-.15-1.89-.37-2.75-.64l.73-3.49c.79.27,1.69.49,2.67.67.99.17,1.93.26,2.85.26.48,0,.93-.04,1.34-.12.41-.08.75-.21,1.05-.41s.52-.47.68-.82c.17-.35.25-.78.25-1.31,0-.41-.06-.76-.17-1.05-.11-.29-.31-.55-.58-.77-.27-.22-.63-.43-1.08-.61-.44-.18-1.01-.37-1.68-.57-.95-.27-1.79-.57-2.53-.89-.74-.32-1.35-.72-1.84-1.21-.49-.48-.87-1.07-1.13-1.76s-.39-1.53-.39-2.54c0-2.21.6-3.77,1.8-4.68,1.2-.91,2.98-1.36,5.35-1.36,1.01,0,1.95.09,2.82.26.87.18,1.77.45,2.7.82l-.49,3.36c-.72-.29-1.5-.52-2.36-.68-.85-.17-1.71-.25-2.58-.25-.45,0-.85.03-1.22.07-.37.05-.69.16-.96.32-.27.17-.48.39-.64.68-.16.29-.23.68-.23,1.16s.08.89.23,1.22c.15.33.39.61.7.84.31.23.69.44,1.15.61s.99.35,1.61.52c1.07.31,1.97.63,2.7.96.74.33,1.33.72,1.77,1.19.44.46.77,1.01.97,1.65s.31,1.43.31,2.38Z"/>
    <path class="cls-1" d="M400.03,49.18v17.29h-4.04v-17.29h-5.43v-3.52h14.91v3.52h-5.43Z"/>
    <path class="cls-1" d="M422.81,51.85c0,1.45-.26,2.67-.78,3.66-.52.99-1.38,1.71-2.56,2.18l4.59,8.78h-4.65l-4.04-8.17h-3.08v8.17h-4.04v-20.81h7.18c1.41,0,2.59.13,3.54.39.95.26,1.71.65,2.27,1.18.56.52.96,1.17,1.21,1.95s.36,1.67.36,2.67ZM418.69,51.97c0-1.12-.26-1.88-.79-2.27s-1.43-.58-2.73-.58h-2.88v5.87h2.88c.7,0,1.27-.05,1.73-.16s.81-.28,1.07-.51c.26-.23.45-.54.55-.93s.16-.86.16-1.42Z"/>
    <path class="cls-1" d="M442.37,45.66v13.37c0,2.75-.7,4.73-2.1,5.96-1.4,1.22-3.37,1.83-5.91,1.83-1.22,0-2.32-.14-3.29-.42-.97-.28-1.79-.73-2.45-1.34-.66-.61-1.16-1.4-1.51-2.37s-.52-2.15-.52-3.54v-13.48h4.04v13.05c0,.93.08,1.69.25,2.28.17.59.41,1.06.73,1.4.32.34.71.58,1.19.71.47.13,1.03.2,1.67.2s1.23-.07,1.71-.2.89-.37,1.21-.71.56-.79.71-1.35c.16-.56.23-1.27.23-2.12v-13.25h4.04Z"/>
    <path class="cls-1" d="M459.14,49.53c-.56-.21-1.16-.38-1.8-.51-.64-.13-1.36-.19-2.18-.19-1.01,0-1.85.11-2.53.34-.68.22-1.22.6-1.63,1.14-.41.53-.7,1.26-.87,2.17-.17.91-.26,2.07-.26,3.46s.09,2.66.28,3.61c.18.95.48,1.7.9,2.26s.96.94,1.64,1.16c.68.22,1.5.34,2.47.34.81,0,1.56-.07,2.24-.2s1.32-.32,1.92-.55l.61,3.21c-.81.35-1.67.61-2.57.79-.9.18-1.87.27-2.92.27-1.53,0-2.85-.2-3.95-.6-1.1-.4-2.01-1.03-2.73-1.89-.72-.86-1.25-1.97-1.58-3.33-.34-1.36-.51-3-.51-4.94s.17-3.5.5-4.85c.33-1.36.86-2.47,1.58-3.34.72-.87,1.66-1.52,2.8-1.93s2.52-.62,4.13-.62c1.06,0,2.01.08,2.82.25.81.17,1.56.37,2.24.62l-.58,3.34Z"/>
    <path class="cls-1" d="M470.99,49.18v17.29h-4.04v-17.29h-5.43v-3.52h14.91v3.52h-5.43Z"/>
    <path class="cls-1" d="M494.76,45.66v13.37c0,2.75-.7,4.73-2.1,5.96-1.4,1.22-3.37,1.83-5.91,1.83-1.22,0-2.32-.14-3.29-.42-.97-.28-1.78-.73-2.45-1.34-.66-.61-1.16-1.4-1.51-2.37s-.52-2.15-.52-3.54v-13.48h4.04v13.05c0,.93.09,1.69.25,2.28s.41,1.06.73,1.4c.32.34.72.58,1.19.71.47.13,1.03.2,1.67.2s1.23-.07,1.72-.2c.48-.13.88-.37,1.21-.71.32-.34.56-.79.71-1.35.16-.56.23-1.27.23-2.12v-13.25h4.04Z"/>
    <path class="cls-1" d="M513.48,51.85c0,1.45-.26,2.67-.79,3.66-.52.99-1.38,1.71-2.56,2.18l4.59,8.78h-4.65l-4.04-8.17h-3.08v8.17h-4.04v-20.81h7.18c1.41,0,2.59.13,3.54.39s1.71.65,2.27,1.18c.56.52.96,1.17,1.21,1.95.24.78.36,1.67.36,2.67ZM509.35,51.97c0-1.12-.26-1.88-.79-2.27-.52-.39-1.44-.58-2.73-.58h-2.88v5.87h2.88c.7,0,1.27-.05,1.73-.16.45-.11.81-.28,1.07-.51.26-.23.44-.54.55-.93.1-.39.16-.86.16-1.42Z"/>
    <path class="cls-1" d="M517.49,66.47v-20.81h13.31v3.52h-9.27v5.08h8.08v3.46h-8.08v5.23h9.27v3.52h-13.31Z"/>
  </g>
  <g>
    <path class="cls-1" d="M131.84,97.27h-7.09l-1.16,4.39h-4.24l6.31-20.81h5.43l6.34,20.81h-4.36l-1.22-4.39ZM125.68,93.87h5.23l-2.56-9.36h-.15l-2.53,9.36Z"/>
    <path class="cls-1" d="M143.61,86.05h-.14v15.6h-3.6v-20.81h5.34l7.03,16.07h.15v-16.07h3.6v20.81h-5.38l-7-15.6Z"/>
    <path class="cls-1" d="M176.1,91.17c0,1.9-.16,3.51-.46,4.84-.31,1.33-.82,2.41-1.53,3.25-.7.84-1.63,1.45-2.77,1.83-1.14.38-2.54.57-4.18.57h-6.74v-20.81h6.68c1.78,0,3.26.18,4.42.55,1.16.37,2.08.96,2.76,1.77.68.81,1.15,1.88,1.42,3.2.27,1.32.41,2.92.41,4.79ZM171.94,91.11c0-1.36-.09-2.48-.26-3.36-.17-.88-.44-1.57-.81-2.06-.37-.49-.84-.84-1.42-1.03s-1.28-.29-2.09-.29h-2.91v13.77h2.93c.83,0,1.53-.09,2.11-.26.57-.17,1.04-.52,1.41-1.03.37-.51.63-1.22.8-2.14.16-.91.25-2.11.25-3.6Z"/>
    <path class="cls-1" d="M185.78,101.66v-20.81h13.31v3.52h-9.27v5.08h8.08v3.46h-8.08v5.23h9.27v3.52h-13.31Z"/>
    <path class="cls-1" d="M206.43,86.05h-.14v15.6h-3.6v-20.81h5.34l7.03,16.07h.15v-16.07h3.6v20.81h-5.38l-7-15.6Z"/>
    <path class="cls-1" d="M223.23,101.66v-20.81h13.31v3.52h-9.27v5.08h8.08v3.46h-8.08v5.23h9.27v3.52h-13.31Z"/>
    <path class="cls-1" d="M254.7,87.04c0,1.45-.26,2.67-.78,3.66-.52.99-1.38,1.71-2.56,2.18l4.59,8.78h-4.65l-4.04-8.17h-3.08v8.17h-4.04v-20.81h7.18c1.41,0,2.59.13,3.54.39.95.26,1.71.65,2.27,1.18.56.52.96,1.17,1.21,1.95s.36,1.67.36,2.67ZM250.58,87.16c0-1.12-.26-1.88-.79-2.27s-1.43-.58-2.73-.58h-2.88v5.87h2.88c.7,0,1.27-.05,1.73-.16s.81-.28,1.07-.51c.26-.23.45-.54.55-.93s.16-.86.16-1.42Z"/>
    <path class="cls-1" d="M270.3,101.53c-1.07.32-2.37.48-3.9.48s-2.78-.19-3.87-.57-2-.98-2.71-1.82c-.72-.83-1.25-1.92-1.6-3.27-.35-1.35-.52-2.98-.52-4.9s.17-3.48.51-4.85c.34-1.38.88-2.51,1.63-3.41.74-.9,1.71-1.57,2.9-2.02,1.19-.44,2.64-.67,4.35-.67,1.08,0,2.06.09,2.93.26.87.17,1.72.42,2.53.73l-.58,3.34c-.68-.27-1.37-.47-2.08-.61-.71-.13-1.5-.2-2.37-.2-1.09,0-1.99.11-2.7.34-.72.22-1.29.61-1.73,1.15-.44.54-.74,1.28-.92,2.21-.17.93-.26,2.1-.26,3.5,0,1.51.1,2.74.29,3.68.19.94.49,1.68.9,2.21s.93.9,1.58,1.09c.65.19,1.43.29,2.34.29.39,0,.79-.02,1.21-.06.42-.04.82-.12,1.21-.23v-7.41h3.78v9.72c-.87.36-1.84.71-2.91,1.02Z"/>
    <path class="cls-1" d="M285.01,94.86v6.8h-4.04v-6.74l-6.28-14.06h4.3l4.02,9.94h.14l4.02-9.94h4.1l-6.28,14.01Z"/>
  </g>
  <g>
    <path class="cls-1" d="M61.64,40.91c-.99,14.92-11.32,27.66-26.5,31.93-14.64-4.01-25.6-16.49-26.59-31.93l-1.98-30.97C15.83,5.57,24.54,3.21,35.14,3.21c9.61,0,19.04,2.09,28.47,6.72l-1.98,30.97h0ZM59.57,10.37l-1.98,30.28c-.81,12.65-9.25,23.82-22.45,28.09-12.49-3.93-21.65-14.74-22.54-28.09l-1.98-30.28c-.54.26-1.35.52-1.8.79l1.89,29.58c.9,13.96,10.69,26,24.43,29.93,13.38-3.93,23.44-15.7,24.34-29.93l1.89-29.58c-.54-.26-1.08-.52-1.8-.79h0ZM29.31,38.73l-4.04-5.24-9.7,12.56c.72,3.22,2.34,4.71,6.38,4.71,2.78,0,3.32-1.66,6.56-1.66,3.41,0,3.59,1.66,6.65,1.66,2.78,0,3.14-1.66,6.47-1.66s3.78,1.66,6.65,1.66c3.95,0,5.93-1.83,6.37-4.79l-9.7-12.48-4.04,5.24-5.75-11.26-5.84,11.26h0ZM48.26,55.21c.89,0,1.7-.26,2.42-.52.53-.87.89-1.48,1.44-2.35-1.17.52-2.42.96-3.86.96-3.24,0-3.42-1.65-6.65-1.65-3.05,0-3.32,1.65-6.55,1.65s-3.32-1.65-6.56-1.65-3.5,1.65-6.56,1.65c-1.71,0-2.78-.61-3.86-1.05.45.79.9,1.66,1.44,2.44.81.26,1.62.43,2.42.43,3.41,0,3.32-1.66,6.56-1.66,3.05,0,3.5,1.75,6.56,1.75,3.23,0,3.5-1.75,6.55-1.75s3.41,1.75,6.65,1.75h0ZM41.61,56c-2.96,0-3.05,1.65-6.47,1.65s-3.86-1.65-6.65-1.65-2.97,1.65-6.74,1.65c3.5,3.93,7.99,7.07,13.38,8.9,5.12-1.75,9.61-4.71,13.29-8.9-3.68,0-3.78-1.65-6.83-1.65ZM27.15,9.67l-2.51-.26,1.53,1.92-1.62,1.92,2.61-.26.99,2.27.99-2.27,2.42.26-1.44-1.92,1.44-1.92-2.42.26-.99-2.18-.99,2.18ZM34.15,18.66l-2.51-.26,1.52,1.92-1.62,1.92,2.61-.26.99,2.27.99-2.27,2.42.26-1.44-1.92,1.44-1.92-2.42.26-.99-2.18s-.99,2.18-.99,2.18ZM40.98,9.67l-2.51-.26,1.53,1.92-1.62,1.92,2.6-.26.99,2.27.99-2.27,2.42.26-1.44-1.92,1.44-1.92-2.42.26-.99-2.18-.99,2.18Z"/>
    <g class="cls-2">
      <g>
        <rect class="cls-1" x="5.71" y="2.43" width="618.72" height="72.71"/>
        <rect class="cls-1" x="5.71" y="2.43" width="618.72" height="72.71"/>
        <rect class="cls-1" x="-2.07" y="-5.44" width="74.34" height="86.94"/>
      </g>
    </g>
  </g>
</svg>